<svg xmlns="http://www.w3.org/2000/svg" viewBox="92 73 142 142">
  <defs>
    <mask id="green-ring-thin">
      <rect x="92" y="73" width="142" height="142" fill="white" />
      <path
        fill="black"
        transform="translate(159.9 141.9) scale(1.32) translate(-159.9 -141.9)"
        d="M201.6,141.9c0-26.3-16.9-44.2-41.6-44.2s-41.8,17.9-41.8,44.2,16.9,44.2,41.8,44.2,41.6-17.9,41.6-44.2Z"
      />
    </mask>
    <mask id="blue-ring-thin">
      <rect x="92" y="73" width="142" height="142" fill="white" />
      <path
        fill="black"
        transform="translate(-4 -3) translate(167 147.3) scale(1.34) translate(-167 -147.3)"
        d="M207.5,147.3c0-25.6-16.4-43-40.5-43s-40.7,17.4-40.7,43,16.4,43,40.7,43,40.5-17.4,40.5-43Z"
      />
    </mask>
  </defs>
  <path
    fill="#aac334"
    mask="url(#green-ring-thin)"
    d="M97.8,141.9c0-37.5,25-62.8,62.1-62.8s61.9,25.3,61.9,62.8-25,62.8-61.9,62.8-62.1-25.3-62.1-62.8Z"
  />
  <path
    fill="#005b9d"
    mask="url(#blue-ring-thin)"
    d="M102.7,144.3c0-36.5,24.3-61.1,60.4-61.1s60.2,24.6,60.2,61.1-24.3,61.1-60.2,61.1-60.4-24.6-60.4-61.1Z"
  />
</svg>
